<?xml version="1.0" encoding="utf-8"?>
<!-- Generator: Adobe Illustrator 23.0.1, SVG Export Plug-In . SVG Version: 6.00 Build 0)  -->
<svg version="1.1" id="Layer_1" xmlns="http://www.w3.org/2000/svg" xmlns:xlink="http://www.w3.org/1999/xlink" x="0px" y="0px"
	 viewBox="0 0 256.2 39.6" style="enable-background:new 0 0 256.2 39.6;" xml:space="preserve">
<style type="text/css">
	.st0{fill:#6ED5ED;}
	.st1{fill:#7EC909;}
</style>
<g>
	<path class="st0" d="M210.3,27.2c0,0.5,0.3,1,0.8,1.3c0.5,0.3,1.2,0.5,2.2,0.5c1.4,0,2.5-0.2,3.3-0.6c0.8-0.4,1.2-0.9,1.2-1.6
		c0-0.5-0.2-0.9-0.7-1.1c-0.5-0.2-1.2-0.3-2.2-0.3h-2c-0.7,0-1.3,0.2-1.8,0.5C210.6,26.2,210.3,26.7,210.3,27.2z"/>
</g>
<g>
	<g>
		<path class="st1" d="M74.5,27.2c0,0.5,0.3,1,0.8,1.3c0.5,0.3,1.2,0.5,2.2,0.5c1.4,0,2.5-0.2,3.3-0.6s1.2-0.9,1.2-1.6
			c0-0.5-0.2-0.9-0.7-1.1c-0.5-0.2-1.2-0.3-2.2-0.3h-2c-0.7,0-1.3,0.2-1.8,0.5C74.8,26.2,74.5,26.7,74.5,27.2z"/>
		<path class="st1" d="M11.1,9.6H9v12.3h1.7c3.9,0,5.8-2.1,5.8-6.2C16.5,11.7,14.7,9.6,11.1,9.6z"/>
		<path class="st0" d="M253.5,8.4c-1.3-1.3-3.6-2.9-7.4-2.9c-0.9,0-1.7,0.1-2.5,0.3c0,0-0.1,0-0.1,0h-10.6v0.3
			c-1.1-0.3-2.4-0.6-3.9-0.6c-0.9,0-1.8,0.1-2.6,0.3c0,0-0.1,0-0.1,0h-9.4c-0.2,0-0.5-0.1-0.8-0.1c-0.8-0.1-1.5-0.2-2.1-0.2
			c-2.6,0-4.8,0.6-6.5,1.7c-0.3,0.2-0.6,0.2-0.9,0c-1.4-0.9-3.3-1.7-6-1.7c-0.9,0-1.7,0.1-2.5,0.3c0,0-0.1,0-0.1,0H194h-6.7h-12.1
			l-0.2,0c-0.7-0.2-1.5-0.2-2.4-0.2c-0.8,0-1.5,0.1-2.2,0.3c-0.1,0-0.1,0-0.2,0h-10.7V6c-0.6-0.2-1.2-0.3-1.9-0.4
			c-0.4,0-0.7-0.4-0.7-0.8V0.9c0-0.4-0.4-0.8-0.8-0.8h-12.3c-0.4,0-0.8,0.4-0.8,0.8v4.1c0,0.5-0.5,0.9-1,0.8c-1-0.2-2.1-0.3-3.3-0.3
			c-0.2,0-0.4,0-0.7,0l0.7-2.1c0.1-0.4-0.1-0.9-0.5-1l-3.8-1.5c-1.6-0.6-3.4-0.9-5.4-0.9c-3.1,0-5.5,0.8-7.3,2.5
			c-0.6,0.6-1.3,1.4-1.9,2.6c-0.1,0.3-0.4,0.5-0.7,0.5c-0.4,0-0.8,0.1-1.2,0.2c-0.1,0-0.1,0-0.2,0h-2.7c-0.4,0-0.8-0.4-0.8-0.8V2.2
			c0-0.4-0.4-0.8-0.8-0.8H91.3c-0.4,0-0.8,0.4-0.8,0.8v0.6h0c1.7,0,3.1,1.4,3.1,3.1v10.7c0,1.3-0.9,2.5-2.1,2.9
			c0.9,1.4,1.5,3,1.8,4.7c0.3,2,0.1,4.1-0.5,6h14.4h7.2h4.7h2.1H133v-0.3c1,0.3,2.1,0.5,3.4,0.5c1,0,1.8-0.1,2.7-0.2
			c0,0,0.1,0,0.1,0h3.9h6.7h9.8h6.7h6.4c0.4,0,0.8-0.4,0.8-0.8c0-0.6,0.7-1,1.2-0.7c1.4,0.9,3.3,1.7,6.1,1.7c0.8,0,1.7-0.1,2.4-0.2
			c0,0,0.1,0,0.1,0h4h6.7h7.8c0.3,0,0.6,0.2,0.8,0.5c0.6,1.6,1.7,2.9,3.2,3.9c1.9,1.3,4.3,1.9,7.4,1.9c3.7,0,6.5-0.7,8.8-2.2
			c1.5-1,2.6-2.3,3.4-3.8c0.2-0.4,0.5-0.5,0.9-0.4c1,0.2,2.1,0.4,3.3,0.4c1.2,0,2.3-0.1,3.3-0.2c0,0,0.1,0,0.1,0h22.4
			c0.4,0,0.8-0.4,0.8-0.8V15.8C256.2,12.8,255.3,10.3,253.5,8.4z M109.4,9.6h-6.9v4.1h6.4V17h-6.4v4.9h6.9v3.3H98.5V6.4h10.9V9.6z
			 M121.3,14.3c-0.3-0.1-0.7-0.1-1.2-0.1c-1.3,0-2.2,0.3-2.9,1s-1.1,1.5-1.1,2.7v7.3h-3.9V10.8h3l0.6,2.4h0.2c0.4-0.8,1.1-1.5,1.8-2
			c0.8-0.5,1.6-0.7,2.5-0.7c0.5,0,1,0,1.3,0.1L121.3,14.3z M131.4,10.8v3H128v11.5h-3.9V13.7h-2.2v-1.9l2.2-1.1V9.7
			c0-1.6,0.4-2.8,1.2-3.6c0.8-0.8,2.1-1.1,3.9-1.1c1.4,0,2.6,0.2,3.6,0.6l-1,2.9c-0.8-0.2-1.5-0.4-2.2-0.4c-0.6,0-1,0.2-1.2,0.5
			c-0.2,0.3-0.4,0.8-0.4,1.3v0.9H131.4z M144.8,25.2H142l-0.8-2h-0.1c-0.7,0.8-1.3,1.4-2,1.7c-0.7,0.3-1.6,0.5-2.7,0.5
			c-1.4,0-2.5-0.4-3.3-1.2c-0.8-0.8-1.2-1.9-1.2-3.4c0-1.5,0.5-2.7,1.6-3.4c1.1-0.7,2.7-1.1,4.8-1.2l2.5-0.1v-0.6
			c0-1.5-0.7-2.2-2.2-2.2c-1.2,0-2.5,0.3-4.1,1l-1.3-2.7c1.7-0.9,3.5-1.3,5.5-1.3c1.9,0,3.4,0.4,4.4,1.3c1,0.8,1.5,2.1,1.5,3.8V25.2
			z M161.3,25.2h-3.9v-8.4c0-2.1-0.8-3.1-2.3-3.1c-1.1,0-1.9,0.4-2.4,1.1c-0.5,0.7-0.7,2-0.7,3.6v6.8H148V5.1h3.9v4.1
			c0,0.3,0,1.1-0.1,2.2l-0.1,1.2h0.2c0.9-1.4,2.3-2.1,4.2-2.1c1.7,0,3,0.5,3.9,1.4c0.9,0.9,1.3,2.2,1.3,3.9V25.2z M173.7,14.3
			c-0.3-0.1-0.7-0.1-1.2-0.1c-1.3,0-2.2,0.3-2.9,1s-1.1,1.5-1.1,2.7v7.3h-3.9V10.8h3l0.6,2.4h0.2c0.4-0.8,1.1-1.5,1.8-2
			c0.8-0.5,1.6-0.7,2.5-0.7c0.5,0,1,0,1.3,0.1L173.7,14.3z M189,25.2h-3l-0.5-1.8h-0.2c-0.4,0.7-1,1.2-1.8,1.6
			c-0.8,0.4-1.7,0.5-2.6,0.5c-1.7,0-3-0.5-3.8-1.4s-1.3-2.2-1.3-3.9v-9.4h3.9v8.4c0,1,0.2,1.8,0.6,2.3c0.4,0.5,1,0.8,1.8,0.8
			c1.1,0,1.9-0.4,2.4-1.1c0.5-0.7,0.7-2,0.7-3.7v-6.8h3.9V25.2z M205.7,25.2h-3.9v-8.4c0-1-0.2-1.8-0.6-2.3c-0.4-0.5-1-0.8-1.8-0.8
			c-1.1,0-1.9,0.4-2.4,1.1c-0.5,0.7-0.7,2-0.7,3.7v6.8h-3.9V10.8h3l0.5,1.8h0.2c0.4-0.7,1-1.2,1.8-1.6c0.8-0.4,1.6-0.5,2.6-0.5
			c1.7,0,2.9,0.5,3.8,1.4c0.9,0.9,1.3,2.2,1.3,3.9V25.2z M221.5,12.8l-2.3,0.6c0.4,0.6,0.6,1.4,0.6,2.2c0,1.5-0.5,2.8-1.6,3.6
			c-1.1,0.9-2.6,1.3-4.5,1.3l-0.7,0l-0.6-0.1c-0.4,0.3-0.6,0.7-0.6,1c0,0.6,0.7,0.9,2.2,0.9h2.5c1.6,0,2.8,0.3,3.6,1
			c0.8,0.7,1.2,1.7,1.2,3c0,1.7-0.7,3-2.1,3.9c-1.4,0.9-3.4,1.4-6.1,1.4c-2,0-3.5-0.3-4.6-1.1c-1.1-0.7-1.6-1.7-1.6-2.9
			c0-0.9,0.3-1.6,0.8-2.2c0.5-0.6,1.3-1,2.4-1.3c-0.4-0.2-0.8-0.5-1.1-0.8c-0.3-0.4-0.5-0.8-0.5-1.2c0-0.5,0.2-1,0.5-1.4
			c0.3-0.4,0.8-0.7,1.4-1.1c-0.8-0.3-1.4-0.9-1.8-1.6c-0.4-0.7-0.7-1.6-0.7-2.6c0-1.6,0.5-2.8,1.5-3.6c1-0.9,2.5-1.3,4.4-1.3
			c0.4,0,0.9,0,1.4,0.1c0.6,0.1,0.9,0.1,1.1,0.2h5V12.8z M235.4,19h-9.3c0,1.1,0.4,2,1,2.6c0.6,0.6,1.5,0.9,2.6,0.9
			c0.9,0,1.7-0.1,2.5-0.3c0.8-0.2,1.6-0.5,2.4-0.9v3c-0.7,0.3-1.4,0.6-2.2,0.8c-0.8,0.2-1.7,0.3-2.9,0.3c-2.3,0-4.1-0.6-5.4-1.9
			c-1.3-1.3-2-3.1-2-5.4c0-2.4,0.6-4.3,1.8-5.6c1.2-1.3,2.9-2,5-2c2,0,3.6,0.6,4.8,1.7s1.7,2.8,1.7,4.8V19z M251.2,25.2h-3.9v-8.4
			c0-1-0.2-1.8-0.6-2.3c-0.4-0.5-1-0.8-1.8-0.8c-1.1,0-1.9,0.4-2.4,1.1c-0.5,0.7-0.7,2-0.7,3.7v6.8h-3.9V10.8h3l0.5,1.8h0.2
			c0.4-0.7,1-1.2,1.8-1.6c0.8-0.4,1.6-0.5,2.6-0.5c1.7,0,2.9,0.5,3.8,1.4c0.9,0.9,1.3,2.2,1.3,3.9V25.2z"/>
		<path class="st1" d="M90.6,5.8h-9.5c-0.2,0-0.5-0.1-0.8-0.1c-0.8-0.1-1.5-0.2-2.1-0.2c-2.8,0-5.1,0.7-6.9,2c0,0-0.1,0-0.1,0
			c-1.4-1-3.4-2-6.4-2c-0.9,0-1.7,0.1-2.6,0.3c0,0,0,0,0,0h-3.8c0,0-0.1,0-0.1-0.1c-0.6-3.3-3.3-5.6-7-5.6c-2.4,0-4.4,1-5.7,2.5
			c0,0,0,0-0.1,0H37c0,0-0.1,0-0.1,0.1l-1.5,4c0,0-0.1,0.1-0.1,0c-1.7-0.9-3.7-1.3-6-1.3c-2.3,0-4.4,0.4-6.4,1.2c0,0-0.1,0-0.1,0
			c-0.4-0.6-0.9-1.1-1.3-1.5c-2.7-2.5-6.2-3.8-10.6-3.8H0.1c0,0-0.1,0-0.1,0.1v28.7c0,0,0,0.1,0.1,0.1h10.3c3.8,0,7-0.9,9.6-2.6
			c0.1,0.1,0.2,0.2,0.2,0.3c1.2,1.2,3.4,2.6,6.8,2.6c1,0,1.9-0.1,2.7-0.3c0,0,0,0,0,0h10.7V30c0.9,0.3,2,0.4,3.2,0.4
			c1,0,2-0.1,2.9-0.3c0,0,0,0,0,0h5.1h6.7h8.3c0,0,0.1,0,0.1,0.1c0.6,1.8,1.7,3.3,3.4,4.4c1.9,1.3,4.3,1.9,7.4,1.9
			c3.3,0,6-0.6,8.1-1.8c3.5-2,5.5-6.1,4.9-10c-0.3-1.8-1.1-3.5-2.3-4.7c0,0,0-0.1,0-0.1c0.4-0.8,0.7-1.8,0.8-2.7c0,0,0-0.1,0.1-0.1
			l1.6-0.4c0,0,0.1,0,0.1-0.1L90.6,5.8C90.7,5.8,90.6,5.8,90.6,5.8z M18,22.7c-1.8,1.7-4.3,2.5-7.7,2.5H5V6.4h5.9
			c3.1,0,5.5,0.8,7.2,2.4c1.7,1.6,2.6,3.9,2.6,6.8C20.6,18.7,19.8,21.1,18,22.7z M35.3,25.2h-2.7l-0.8-2h-0.1
			c-0.7,0.8-1.3,1.4-2,1.7s-1.6,0.5-2.7,0.5c-1.4,0-2.5-0.4-3.3-1.2c-0.8-0.8-1.2-1.9-1.2-3.4c0-1.5,0.5-2.7,1.6-3.4
			s2.7-1.1,4.8-1.2l2.5-0.1v-0.6c0-1.5-0.7-2.2-2.2-2.2c-1.2,0-2.5,0.3-4.1,1l-1.3-2.7c1.7-0.9,3.5-1.3,5.5-1.3
			c1.9,0,3.4,0.4,4.4,1.3c1,0.8,1.5,2.1,1.5,3.8V25.2z M47.2,24.8c-1,0.4-2.2,0.7-3.6,0.7c-1.6,0-2.7-0.4-3.4-1.2s-1.1-2-1.1-3.6v-7
			h-1.9v-1.7l2.2-1.3l1.1-3H43v3.1h4v3h-4v7c0,0.6,0.2,1,0.5,1.2s0.7,0.4,1.2,0.4c0.7,0,1.5-0.1,2.5-0.5V24.8z M53.2,25.2h-3.9V10.8
			h3.9V25.2z M52.9,8.5C52.5,8.8,52,9,51.2,9c-1.4,0-2.1-0.6-2.1-1.9c0-1.3,0.7-1.9,2.1-1.9c1.4,0,2.1,0.6,2.1,1.9
			C53.4,7.7,53.2,8.1,52.9,8.5z M69.9,25.2h-3.9v-8.4c0-1-0.2-1.8-0.6-2.3c-0.4-0.5-1-0.8-1.8-0.8c-1.1,0-1.9,0.4-2.4,1.1
			c-0.5,0.7-0.7,2-0.7,3.7v6.8h-3.9V10.8h3l0.5,1.8h0.2c0.4-0.7,1-1.2,1.8-1.6c0.8-0.4,1.6-0.5,2.6-0.5c1.7,0,2.9,0.5,3.8,1.4
			c0.9,0.9,1.3,2.2,1.3,3.9V25.2z M85.7,12.8l-2.3,0.6c0.4,0.6,0.6,1.4,0.6,2.2c0,1.5-0.5,2.8-1.6,3.6c-1.1,0.9-2.6,1.3-4.5,1.3
			l-0.7,0l-0.6-0.1c-0.4,0.3-0.6,0.7-0.6,1c0,0.6,0.7,0.9,2.2,0.9h2.4c1.6,0,2.8,0.3,3.6,1s1.2,1.7,1.2,3c0,1.7-0.7,3-2.1,3.9
			c-1.4,0.9-3.4,1.4-6.1,1.4c-2,0-3.5-0.3-4.6-1.1c-1.1-0.7-1.6-1.7-1.6-2.9c0-0.9,0.3-1.6,0.8-2.2c0.5-0.6,1.3-1,2.4-1.3
			c-0.4-0.2-0.8-0.5-1.1-0.8c-0.3-0.4-0.5-0.8-0.5-1.2c0-0.5,0.2-1,0.5-1.4c0.3-0.4,0.8-0.7,1.4-1.1c-0.8-0.3-1.4-0.9-1.8-1.6
			c-0.4-0.7-0.7-1.6-0.7-2.6c0-1.6,0.5-2.8,1.5-3.6s2.5-1.3,4.4-1.3c0.4,0,0.9,0,1.4,0.1c0.6,0.1,0.9,0.1,1.1,0.2h5V12.8z"/>
	</g>
</g>
<polygon class="st1" points="28.7,17 29.8,19.2 32.2,19.5 30.4,21.2 30.8,23.6 28.7,22.5 26.6,23.6 27,21.2 25.2,19.5 27.6,19.2 "/>
<polygon class="st1" points="78.3,11.9 79.3,14 81.7,14.4 80,16.1 80.4,18.5 78.3,17.3 76.1,18.5 76.5,16.1 74.8,14.4 77.2,14 "/>
<polygon class="st0" points="137.9,17.3 139,19.5 141.4,19.8 139.7,21.5 140.1,23.9 137.9,22.8 135.8,23.9 136.2,21.5 134.4,19.8 
	136.8,19.5 "/>
<polygon class="st0" points="229,11.5 230.1,13.7 232.5,14.1 230.7,15.8 231.1,18.1 229,17 226.9,18.1 227.3,15.8 225.5,14.1 
	227.9,13.7 "/>
<polygon class="st0" points="214.1,11.8 215.1,14 217.5,14.3 215.8,16 216.2,18.4 214.1,17.3 211.9,18.4 212.3,16 210.6,14.3 
	213,14 "/>
</svg>
