<?xml version="1.0" encoding="utf-8"?>
<!-- Generator: Adobe Illustrator 23.0.1, SVG Export Plug-In . SVG Version: 6.00 Build 0)  -->
<svg version="1.1" id="Layer_1" xmlns="http://www.w3.org/2000/svg" xmlns:xlink="http://www.w3.org/1999/xlink" x="0px" y="0px"
	 viewBox="0 0 310 48" style="enable-background:new 0 0 310 48;" xml:space="preserve">
<style type="text/css">
	.st0{fill:#FFFFFF;}
	.st1{fill:#A8FF00;}
</style>
<g>
	<path class="st0" d="M254.5,33c0,0.7,0.3,1.2,0.9,1.5c0.6,0.4,1.5,0.6,2.6,0.6c1.7,0,3-0.2,4-0.7c1-0.5,1.5-1.1,1.5-1.9
		c0-0.7-0.3-1.1-0.9-1.4c-0.6-0.3-1.5-0.4-2.7-0.4h-2.5c-0.9,0-1.6,0.2-2.2,0.6C254.8,31.8,254.5,32.3,254.5,33z"/>
</g>
<g>
	<g>
		<path class="st1" d="M90.2,33c0,0.7,0.3,1.2,0.9,1.5c0.6,0.4,1.5,0.6,2.6,0.6c1.7,0,3-0.2,4-0.7c1-0.5,1.5-1.1,1.5-1.9
			c0-0.7-0.3-1.1-0.9-1.4c-0.6-0.3-1.5-0.4-2.7-0.4h-2.5c-0.9,0-1.6,0.2-2.2,0.6C90.5,31.8,90.2,32.3,90.2,33z"/>
		<path class="st1" d="M13.5,11.7h-2.6v14.9H13c4.7,0,7-2.5,7-7.5C20,14.1,17.8,11.7,13.5,11.7z"/>
		<path class="st0" d="M306.7,10.2c-1.5-1.6-4.3-3.5-9-3.5c-1,0-2,0.1-3,0.3c-0.1,0-0.1,0-0.2,0h-12.8v0.4c-1.3-0.4-2.9-0.7-4.7-0.7
			c-1.1,0-2.2,0.1-3.2,0.3c-0.1,0-0.1,0-0.2,0h-11.4c-0.3,0-0.6-0.1-1-0.1c-0.9-0.1-1.8-0.2-2.5-0.2c-3.1,0-5.8,0.7-7.9,2.1
			c-0.3,0.2-0.7,0.2-1.1,0c-1.6-1.1-4-2-7.2-2c-1,0-2,0.1-3,0.3c-0.1,0-0.1,0-0.2,0h-4.7h-8.1H212l-0.2,0c-0.9-0.2-1.8-0.3-2.9-0.3
			c-0.9,0-1.8,0.1-2.7,0.3c-0.1,0-0.1,0-0.2,0h-12.9v0.3c-0.7-0.2-1.5-0.4-2.3-0.5c-0.5-0.1-0.9-0.5-0.9-1V1.1c0-0.5-0.4-1-1-1
			h-14.9c-0.5,0-1,0.4-1,1v5c0,0.6-0.6,1.1-1.2,0.9c-1.2-0.3-2.6-0.4-4-0.4c-0.3,0-0.5,0-0.8,0l0.9-2.6c0.2-0.5-0.1-1-0.6-1.2
			l-4.6-1.8c-2-0.8-4.2-1.1-6.5-1.1c-3.7,0-6.7,1-8.8,3c-0.8,0.7-1.6,1.7-2.2,3.2c-0.2,0.3-0.5,0.6-0.8,0.6c-0.5,0-1,0.1-1.5,0.2
			c-0.1,0-0.1,0-0.2,0h-3.3c-0.5,0-1-0.4-1-1V2.6c0-0.5-0.4-1-1-1h-26.9c-0.5,0-1,0.4-1,1v0.8h0c2.1,0,3.7,1.7,3.7,3.7v13
			c0,1.6-1,3-2.6,3.5c1.1,1.7,1.8,3.6,2.2,5.7c0.4,2.5,0.1,4.9-0.6,7.2h17.5h8.7h5.6h2.5H161v-0.3c1.2,0.4,2.5,0.6,4.1,0.6
			c1.2,0,2.2-0.1,3.2-0.3c0.1,0,0.1,0,0.2,0h4.7h8.2h11.9h8.2h7.7c0.5,0,1-0.4,1-1c0-0.8,0.9-1.3,1.5-0.8c1.6,1.1,4,2.1,7.3,2.1
			c1,0,2-0.1,2.9-0.3c0.1,0,0.1,0,0.2,0h4.8h8.1h9.4c0.4,0,0.8,0.3,0.9,0.6c0.7,1.9,2.1,3.5,3.9,4.8c2.3,1.5,5.2,2.3,8.9,2.3
			c4.4,0,7.9-0.9,10.7-2.7c1.8-1.2,3.2-2.8,4.1-4.6c0.2-0.4,0.7-0.6,1.1-0.5c1.2,0.3,2.5,0.4,4,0.4c1.5,0,2.8-0.1,4-0.3
			c0,0,0.1,0,0.1,0H309c0.5,0,1-0.4,1-1V19.1C310,15.5,308.9,12.4,306.7,10.2z M132.4,11.7h-8.3v5h7.7v4h-7.7v5.9h8.3v4h-13.1V7.7
			h13.1V11.7z M146.8,17.3c-0.4-0.1-0.9-0.2-1.4-0.2c-1.5,0-2.7,0.4-3.6,1.2c-0.8,0.8-1.3,1.9-1.3,3.3v8.9h-4.8V13.1h3.6l0.7,2.9
			h0.2c0.5-1,1.3-1.8,2.2-2.4c0.9-0.6,1.9-0.9,3-0.9c0.6,0,1.2,0,1.6,0.1L146.8,17.3z M159,13.1v3.6h-4.1v13.9h-4.8V16.6h-2.6v-2.3
			l2.6-1.3v-1.3c0-2,0.5-3.4,1.5-4.4c1-0.9,2.5-1.4,4.7-1.4c1.6,0,3.1,0.2,4.4,0.7l-1.2,3.5c-1-0.3-1.8-0.5-2.7-0.5
			c-0.7,0-1.2,0.2-1.5,0.6c-0.3,0.4-0.5,0.9-0.5,1.5v1.1H159z M175.2,30.5h-3.3l-0.9-2.4h-0.1c-0.8,1-1.6,1.7-2.5,2.1
			c-0.8,0.4-2,0.6-3.3,0.6c-1.7,0-3-0.5-4-1.4c-1-1-1.4-2.3-1.4-4.1c0-1.9,0.6-3.2,1.9-4.1c1.3-0.9,3.2-1.4,5.9-1.5l3-0.1v-0.8
			c0-1.8-0.9-2.7-2.7-2.7c-1.4,0-3,0.4-4.9,1.3l-1.6-3.2c2-1.1,4.2-1.6,6.7-1.6c2.3,0,4.1,0.5,5.4,1.5c1.2,1,1.9,2.6,1.9,4.7V30.5z
			 M195.2,30.5h-4.8V20.3c0-2.5-0.9-3.8-2.8-3.8c-1.3,0-2.3,0.5-2.9,1.4c-0.6,0.9-0.9,2.4-0.9,4.4v8.2h-4.8V6.2h4.8v4.9
			c0,0.4,0,1.3-0.1,2.7l-0.1,1.4h0.2c1.1-1.7,2.7-2.6,5.1-2.6c2.1,0,3.6,0.6,4.7,1.7c1.1,1.1,1.6,2.7,1.6,4.7V30.5z M210.2,17.3
			c-0.4-0.1-0.9-0.2-1.4-0.2c-1.5,0-2.7,0.4-3.6,1.2s-1.3,1.9-1.3,3.3v8.9h-4.8V13.1h3.6l0.7,2.9h0.2c0.5-1,1.3-1.8,2.2-2.4
			c0.9-0.6,1.9-0.9,3-0.9c0.6,0,1.2,0,1.6,0.1L210.2,17.3z M228.7,30.5h-3.7l-0.6-2.2h-0.2c-0.5,0.8-1.2,1.4-2.2,1.9
			c-0.9,0.4-2,0.7-3.2,0.7c-2,0-3.6-0.5-4.6-1.6c-1-1.1-1.6-2.7-1.6-4.7V13.1h4.8v10.2c0,1.3,0.2,2.2,0.7,2.8
			c0.4,0.6,1.2,0.9,2.1,0.9c1.3,0,2.3-0.4,2.9-1.3c0.6-0.9,0.9-2.4,0.9-4.4v-8.2h4.8V30.5z M248.9,30.5h-4.8V20.3
			c0-1.3-0.2-2.2-0.7-2.8c-0.4-0.6-1.2-0.9-2.1-0.9c-1.3,0-2.3,0.4-2.9,1.3c-0.6,0.9-0.9,2.4-0.9,4.4v8.2h-4.8V13.1h3.6l0.6,2.2h0.3
			c0.5-0.8,1.3-1.5,2.2-1.9c0.9-0.4,2-0.6,3.2-0.6c2,0,3.6,0.5,4.6,1.6c1.1,1.1,1.6,2.7,1.6,4.8V30.5z M268,15.5l-2.7,0.7
			c0.5,0.8,0.7,1.7,0.7,2.6c0,1.9-0.7,3.3-2,4.4c-1.3,1-3.1,1.6-5.4,1.6l-0.9,0l-0.7-0.1c-0.5,0.4-0.7,0.8-0.7,1.2
			c0,0.7,0.9,1,2.6,1h3c1.9,0,3.4,0.4,4.4,1.2c1,0.8,1.5,2,1.5,3.6c0,2-0.9,3.6-2.6,4.7c-1.7,1.1-4.1,1.7-7.3,1.7
			c-2.4,0-4.3-0.4-5.6-1.3c-1.3-0.8-1.9-2-1.9-3.6c0-1.1,0.3-1.9,1-2.6c0.7-0.7,1.6-1.2,2.9-1.5c-0.5-0.2-0.9-0.5-1.3-1
			c-0.4-0.5-0.5-1-0.5-1.5c0-0.7,0.2-1.2,0.6-1.7c0.4-0.4,0.9-0.9,1.7-1.3c-0.9-0.4-1.6-1-2.2-1.9c-0.5-0.9-0.8-1.9-0.8-3.1
			c0-1.9,0.6-3.4,1.9-4.4c1.2-1,3-1.6,5.3-1.6c0.5,0,1.1,0,1.7,0.1c0.7,0.1,1.1,0.2,1.3,0.2h6.1V15.5z M284.9,23h-11.3
			c0.1,1.4,0.5,2.4,1.2,3.2c0.7,0.8,1.8,1.1,3.2,1.1c1.1,0,2-0.1,3-0.3c0.9-0.2,1.9-0.6,2.9-1v3.7c-0.8,0.4-1.7,0.7-2.7,0.9
			c-0.9,0.2-2.1,0.3-3.5,0.3c-2.8,0-5-0.8-6.6-2.3c-1.6-1.6-2.4-3.7-2.4-6.6c0-2.9,0.7-5.2,2.2-6.8c1.5-1.6,3.5-2.4,6.1-2.4
			c2.5,0,4.4,0.7,5.8,2.1c1.4,1.4,2.1,3.3,2.1,5.8V23z M303.9,30.5h-4.8V20.3c0-1.3-0.2-2.2-0.7-2.8c-0.4-0.6-1.2-0.9-2.1-0.9
			c-1.3,0-2.3,0.4-2.9,1.3c-0.6,0.9-0.9,2.4-0.9,4.4v8.2h-4.8V13.1h3.6l0.6,2.2h0.3c0.5-0.8,1.3-1.5,2.2-1.9c0.9-0.4,2-0.6,3.2-0.6
			c2,0,3.6,0.5,4.6,1.6c1.1,1.1,1.6,2.7,1.6,4.8V30.5z"/>
		<path class="st1" d="M109.6,7H98.1c-0.3,0-0.6-0.1-1-0.1c-0.9-0.1-1.8-0.2-2.5-0.2c-3.3,0-6.2,0.8-8.4,2.4c0,0-0.1,0-0.1,0
			c-1.7-1.2-4.1-2.4-7.7-2.4c-1.1,0-2.1,0.1-3.1,0.3c0,0,0,0,0,0h-4.6c0,0-0.1,0-0.1-0.1c-0.7-4-4-6.8-8.5-6.8
			c-2.9,0-5.4,1.2-6.9,3.1c0,0,0,0-0.1,0H44.8c0,0-0.1,0-0.1,0.1l-1.8,4.8c0,0.1-0.1,0.1-0.1,0.1c-2-1.1-4.5-1.6-7.3-1.6
			c-2.7,0-5.3,0.5-7.7,1.5c0,0-0.1,0-0.1,0c-0.5-0.7-1.1-1.3-1.6-1.8c-3.2-3.1-7.5-4.6-12.9-4.6H0.1C0,1.6,0,1.7,0,1.7v34.7
			c0,0.1,0,0.1,0.1,0.1h12.4c4.6,0,8.5-1.1,11.6-3.2c0.1,0.1,0.2,0.2,0.3,0.3c1.5,1.5,4.1,3.2,8.2,3.2c1.2,0,2.3-0.1,3.3-0.3
			c0,0,0,0,0,0h12.9v-0.2c1.1,0.3,2.4,0.5,3.9,0.5c1.2,0,2.4-0.1,3.5-0.3c0,0,0,0,0,0h6.2h8.1h10c0,0,0.1,0,0.1,0.1
			c0.7,2.2,2.1,4,4.1,5.3c2.3,1.5,5.2,2.3,8.9,2.3c4,0,7.3-0.7,9.9-2.2c4.3-2.4,6.7-7.3,5.9-12.2c-0.3-2.2-1.3-4.2-2.8-5.7
			c0,0,0-0.1,0-0.1c0.5-1,0.8-2.1,1-3.3c0,0,0-0.1,0.1-0.1l2-0.5c0,0,0.1-0.1,0.1-0.1L109.6,7C109.7,7.1,109.7,7,109.6,7z
			 M21.8,27.5c-2.1,2-5.2,3-9.3,3H6.1V7.7h7.2c3.7,0,6.6,1,8.7,2.9c2.1,2,3.1,4.7,3.1,8.2C25,22.6,23.9,25.5,21.8,27.5z M42.8,30.5
			h-3.3l-0.9-2.4h-0.1c-0.8,1-1.6,1.7-2.5,2.1c-0.8,0.4-2,0.6-3.3,0.6c-1.7,0-3-0.5-4-1.4c-1-1-1.4-2.3-1.4-4.1
			c0-1.9,0.6-3.2,1.9-4.1c1.3-0.9,3.2-1.4,5.9-1.5l3-0.1v-0.8c0-1.8-0.9-2.7-2.7-2.7c-1.4,0-3,0.4-4.9,1.3l-1.6-3.2
			c2-1.1,4.2-1.6,6.7-1.6c2.3,0,4.1,0.5,5.4,1.5c1.2,1,1.9,2.6,1.9,4.7V30.5z M57.1,30c-1.2,0.5-2.6,0.8-4.4,0.8
			c-1.9,0-3.3-0.5-4.2-1.4c-0.9-1-1.3-2.4-1.3-4.3v-8.4H45v-2l2.6-1.6L49,9.3h3v3.7h4.9v3.6H52V25c0,0.7,0.2,1.2,0.6,1.5
			c0.4,0.3,0.9,0.5,1.5,0.5c0.8,0,1.8-0.2,3-0.5V30z M64.4,30.5h-4.8V13.1h4.8V30.5z M64,10.3c-0.4,0.4-1.1,0.6-1.9,0.6
			c-1.7,0-2.6-0.8-2.6-2.3c0-1.6,0.9-2.3,2.6-2.3c1.7,0,2.6,0.8,2.6,2.3C64.6,9.3,64.4,9.9,64,10.3z M84.5,30.5h-4.8V20.3
			c0-1.3-0.2-2.2-0.7-2.8c-0.4-0.6-1.2-0.9-2.1-0.9c-1.3,0-2.3,0.4-2.9,1.3c-0.6,0.9-0.9,2.4-0.9,4.4v8.2h-4.8V13.1h3.6l0.6,2.2H73
			c0.5-0.8,1.3-1.5,2.2-1.9c0.9-0.4,2-0.6,3.2-0.6c2,0,3.6,0.5,4.6,1.6c1.1,1.1,1.6,2.7,1.6,4.8V30.5z M103.7,15.5l-2.7,0.7
			c0.5,0.8,0.7,1.7,0.7,2.6c0,1.9-0.7,3.3-2,4.4c-1.3,1-3.1,1.6-5.4,1.6l-0.9,0l-0.7-0.1C92.2,25,92,25.4,92,25.9c0,0.7,0.9,1,2.6,1
			h3c1.9,0,3.4,0.4,4.4,1.2c1,0.8,1.5,2,1.5,3.6c0,2-0.9,3.6-2.6,4.7c-1.7,1.1-4.1,1.7-7.3,1.7c-2.4,0-4.3-0.4-5.6-1.3
			c-1.3-0.8-1.9-2-1.9-3.6c0-1.1,0.3-1.9,1-2.6c0.7-0.7,1.6-1.2,2.9-1.5c-0.5-0.2-0.9-0.5-1.3-1c-0.4-0.5-0.5-1-0.5-1.5
			c0-0.7,0.2-1.2,0.6-1.7c0.4-0.4,0.9-0.9,1.7-1.3c-0.9-0.4-1.6-1-2.2-1.9c-0.5-0.9-0.8-1.9-0.8-3.1c0-1.9,0.6-3.4,1.9-4.4
			c1.2-1,3-1.6,5.3-1.6c0.5,0,1.1,0,1.7,0.1c0.7,0.1,1.1,0.2,1.3,0.2h6.1V15.5z"/>
	</g>
</g>
<polygon class="st1" points="101.7,42.9 116.7,48 108,37.5 "/>
<polygon class="st1" points="34.7,20.6 36,23.2 38.9,23.6 36.8,25.7 37.3,28.6 34.7,27.2 32.1,28.6 32.6,25.7 30.5,23.6 33.4,23.2 
	"/>
<polygon class="st1" points="94.7,14.4 96,17 98.9,17.4 96.8,19.5 97.3,22.4 94.7,21 92.1,22.4 92.6,19.5 90.5,17.4 93.4,17 "/>
<polygon class="st0" points="166.9,20.9 168.2,23.6 171.1,24 169,26 169.5,28.9 166.9,27.6 164.3,28.9 164.8,26 162.7,24 
	165.6,23.6 "/>
<polygon class="st0" points="277.1,14 278.4,16.6 281.3,17 279.2,19.1 279.7,22 277.1,20.6 274.5,22 275,19.1 272.9,17 275.8,16.6 
	"/>
<polygon class="st0" points="259.1,14.3 260.4,16.9 263.3,17.3 261.2,19.4 261.7,22.3 259.1,20.9 256.5,22.3 257,19.4 254.9,17.3 
	257.8,16.9 "/>
</svg>
